# xmcd
#
# Track frame offsets:
#	150
#	13953
#	27513
#	39580
#	52800
#	64783
#	73763
#	86743
#	98163
#	109065
#	121720
#	134455
#	148513
#	160720
#	174530
#	187925
#	201450
#	212055
#	222203
#	237685
#
# Disc length: 3315 seconds
#
# Revision: 3
# Processed by: cddbd v1.5.2PL0 Copyright (c) Steve Scherf et al.
# Submitted via: EasyCDDAExtractor 16.0.6.1
#
DISCID=280cf114
DTITLE=Patti Page - VA-014 Tennessee Waltz 20 Smash Hits
DYEAR=1994
DGENRE=Country
TTITLE0=All my Love
TTITLE1=The Tennessee Waltz
TTITLE2=Mockin' Bird Hill
TTITLE3=Mister and Mississippi
TTITLE4=Detour
TTITLE5=Come  What May
TTITLE6=I Went to Your Wedding
TTITLE7=You Beling to Me
TTITLE8=The Doggie in the Window
TTITLE9=Changing Partners
TTITLE10=Cross over the Bridge
TTITLE11=What a Dream
TTITLE12=The Mama Doll Song
TTITLE13=Croce di Ore
TTITLE14=Allegheny Moon
TTITLE15=Mama from the Train
TTITLE16=Old Cape Cod
TTITLE17=A Poor Man's Roses (Or a Rich Man's Gold)
TTITLE18=On the Inside
TTITLE19=Left Right out of your Heart
EXTD=YEAR: 1994 ID3G:  13
EXTT0=
EXTT1=
EXTT2=
EXTT3=
EXTT4=
EXTT5=
EXTT6=
EXTT7=
EXTT8=
EXTT9=
EXTT10=
EXTT11=
EXTT12=
EXTT13=
EXTT14=
EXTT15=
EXTT16=
EXTT17=
EXTT18=
EXTT19=
PLAYORDER=
